# xmcd
#
# Track frame offsets:
#	150
#	8225
#	21760
#	30793
#	41196
#	54500
#	66367
#	78703
#	91879
#	99941
#	118725
#	132842
#	147373
#	159897
#	170544
#
# Disc length: 2498 seconds
# Revision: 0
# Processed by: cddbd v1.5.2PL0 Copyright (c) Steve Scherf et al.
# Submitted via: dBpowerAMP V12.0
#
DISCID=bc09c00f
DTITLE=Johnny Cash - The Music of Johnny Cash
DYEAR=1965
DGENRE=Country
TTITLE0=Five Feet High and Rising
TTITLE1=Tennessee Flat-Top Box
TTITLE2=Sing It Pretty Sue
TTITLE3=Busted
TTITLE4=Bad News
TTITLE5=Ring of Fire
TTITLE6=Understand Your Man
TTITLE7=Forty Shades of Green
TTITLE8=You Wild Colorado
TTITLE9=The Ballad of Ira Hayes
TTITLE10=The Long Black Veil
TTITLE11=25 Minutes to Go
TTITLE12=Jackson
TTITLE13=Daddy Sing Bass
TTITLE14=A Boy Named Sue
EXTD=
EXTT0=
EXTT1=
EXTT2=
EXTT3=
EXTT4=
EXTT5=
EXTT6=
EXTT7=
EXTT8=
EXTT9=
EXTT10=
EXTT11=
EXTT12=
EXTT13=
EXTT14=
PLAYORDER=
